<?xml version="1.0" standalone="no"?>
<!DOCTYPE svg PUBLIC "-//W3C//DTD SVG 20010904//EN"
 "http://www.w3.org/TR/2001/REC-SVG-20010904/DTD/svg10.dtd">
<svg version="1.0" xmlns="http://www.w3.org/2000/svg"
 width="1391.000000pt" height="459.000000pt" viewBox="0 0 1391.000000 459.000000"
 preserveAspectRatio="xMidYMid meet">

<g transform="translate(0.000000,459.000000) scale(0.100000,-0.100000)"
fill="#000000" stroke="none">
<path d="M11780 4303 c-97 -34 -189 -113 -266 -229 -49 -74 -146 -282 -189
-404 -129 -372 -215 -918 -215 -1368 l0 -183 -47 -20 c-227 -97 -508 -159
-725 -159 -396 0 -645 163 -735 481 -25 90 -25 436 0 554 25 115 54 198 102
296 78 160 156 252 278 333 96 63 163 89 269 106 127 21 249 -13 301 -82 42
-57 51 -100 42 -217 -15 -193 -13 -256 10 -281 30 -33 77 -50 142 -50 106 0
174 62 215 193 29 94 31 281 4 371 -64 214 -210 349 -425 392 -117 23 -353 15
-461 -16 -117 -33 -202 -67 -276 -112 -340 -203 -563 -566 -633 -1027 -17
-112 -15 -421 3 -508 98 -460 434 -734 964 -784 261 -24 609 27 884 132 43 16
79 29 81 29 3 0 7 -17 10 -39 12 -95 63 -136 156 -126 122 13 195 75 231 197
13 40 38 121 56 180 87 276 243 544 313 536 26 -3 26 -4 24 -78 -1 -42 -13
-134 -26 -205 -43 -224 -51 -302 -37 -383 32 -192 174 -280 385 -239 107 20
170 49 260 117 39 30 72 56 75 59 31 36 38 34 101 -33 165 -177 444 -204 660
-65 152 98 258 259 303 460 23 100 24 312 1 399 -53 205 -187 353 -364 402
-289 80 -590 -88 -705 -395 -45 -118 -58 -193 -59 -340 l-1 -138 -53 -54
c-126 -128 -224 -141 -253 -34 -10 36 1 146 29 279 75 368 93 488 80 555 -20
107 -82 151 -203 143 -189 -12 -400 -206 -547 -503 -32 -65 -59 -125 -59 -132
0 -7 -7 -13 -16 -13 -15 0 -16 9 -11 68 4 37 7 95 7 129 l0 62 123 144 c235
275 365 462 467 672 95 194 132 344 133 530 1 197 -64 333 -188 391 -59 28
-146 31 -215 7z m72 -274 c50 -27 70 -171 44 -314 -43 -226 -160 -469 -346
-718 -59 -78 -60 -73 -25 138 80 477 185 816 273 886 29 22 28 22 54 8z m1298
-1411 c107 -54 154 -236 116 -448 -19 -104 -50 -172 -101 -219 -78 -72 -159
-73 -235 -5 -63 57 -82 122 -82 279 0 186 27 280 103 356 61 61 127 73 199 37z"/>
<path d="M2552 4101 c-140 -48 -303 -221 -410 -436 -76 -153 -161 -415 -206
-640 -13 -64 -26 -118 -28 -120 -21 -21 -569 -38 -581 -17 -3 4 3 61 13 127
37 256 43 326 44 495 0 137 -4 189 -18 240 -37 135 -102 222 -205 271 -35 18
-69 24 -147 27 -116 5 -223 -17 -331 -67 -177 -83 -373 -265 -439 -406 -32
-68 -33 -170 -3 -209 55 -69 106 -54 193 58 224 287 468 379 542 204 14 -35
17 -70 17 -184 -1 -78 -6 -177 -12 -220 -29 -197 -54 -350 -61 -363 -6 -11
-26 -14 -82 -12 -92 3 -195 -14 -236 -39 -45 -28 -65 -74 -66 -150 -1 -116 46
-150 209 -150 51 0 96 -4 99 -9 7 -10 -22 -140 -101 -461 -77 -314 -75 -378 9
-430 78 -47 186 -32 254 36 48 47 73 107 110 262 14 59 38 161 54 227 15 66
38 167 50 225 38 186 34 178 83 184 23 3 101 10 172 16 72 5 181 16 243 25 62
8 122 16 132 18 19 2 20 -7 24 -203 5 -214 16 -288 65 -424 53 -149 164 -275
294 -336 213 -99 445 -67 651 89 37 29 69 51 70 49 1 -2 17 -27 35 -55 43 -69
88 -107 151 -128 62 -21 113 -15 185 20 89 44 153 116 211 239 20 42 39 74 42
72 2 -3 0 -31 -6 -63 -6 -32 -16 -97 -23 -145 l-13 -87 -107 -86 c-224 -179
-394 -346 -503 -495 -188 -256 -210 -561 -49 -688 78 -60 99 -67 218 -67 102
0 115 2 176 31 227 108 407 480 539 1114 12 58 23 110 25 115 2 10 418 295
429 295 3 0 6 -6 6 -12 0 -31 63 -141 103 -181 44 -45 115 -77 168 -77 52 0
138 40 192 90 39 35 67 75 101 140 25 50 46 98 46 106 0 8 4 14 9 14 6 0 12
-21 15 -47 10 -77 46 -179 78 -218 62 -74 157 -97 292 -71 99 20 181 58 268
124 l67 52 11 -39 c12 -47 46 -97 83 -125 38 -28 129 -29 177 0 48 27 72 76
115 229 76 276 191 521 293 628 39 40 62 46 82 22 16 -19 9 -77 -32 -290 -57
-293 -43 -441 51 -535 72 -71 171 -93 311 -66 100 19 180 56 275 127 l69 52
15 -24 c34 -55 117 -124 171 -144 74 -27 179 -26 241 2 57 26 119 80 144 127
26 49 41 45 48 -10 10 -90 75 -139 187 -139 86 0 138 26 165 80 16 34 21 71
27 244 8 210 27 373 73 631 22 128 20 221 -6 254 -31 39 -63 49 -158 50 l-85
1 -8 32 c-13 51 -50 73 -123 73 -312 0 -627 -288 -721 -659 -14 -53 -25 -121
-25 -153 l-1 -57 -77 -74 c-84 -82 -124 -107 -171 -107 -44 0 -66 14 -79 51
-20 57 -14 104 44 394 78 390 82 480 20 553 -55 66 -186 69 -310 8 -149 -74
-289 -238 -407 -475 -63 -127 -68 -133 -68 -96 0 51 20 156 66 342 43 178 48
236 19 257 -24 18 -131 21 -188 5 -44 -12 -102 -59 -124 -102 -51 -99 -108
-386 -120 -596 l-6 -125 -76 -79 c-129 -135 -208 -169 -262 -111 -21 23 -24
34 -23 99 1 41 6 100 13 132 6 32 25 126 42 208 77 381 89 444 89 497 0 74
-18 88 -112 88 -126 0 -175 -39 -214 -170 -91 -305 -174 -522 -244 -641 -41
-68 -119 -149 -145 -149 -24 0 -53 36 -60 74 -12 63 35 362 101 634 41 172 42
195 9 227 -21 22 -33 25 -97 25 -166 -1 -205 -43 -271 -285 -44 -159 -63 -257
-77 -400 -6 -60 -12 -110 -13 -111 -19 -10 -228 -161 -273 -196 -34 -26 -64
-48 -68 -48 -13 0 -13 1 90 625 42 260 52 358 36 381 -15 23 -53 34 -114 34
-126 -1 -176 -48 -218 -204 -71 -266 -169 -514 -251 -637 -38 -56 -101 -119
-120 -119 -25 0 -48 22 -59 56 -22 65 13 312 89 631 45 191 46 192 30 226 -15
34 -49 47 -117 47 -163 0 -209 -54 -281 -330 -35 -134 -71 -366 -71 -456 0
-51 -1 -54 -57 -104 -247 -221 -494 -177 -569 103 -23 84 -38 328 -28 447 l9
104 131 66 c249 124 412 280 503 482 103 226 121 537 41 691 -37 70 -78 114
-132 141 -43 22 -66 26 -132 26 -52 -1 -100 -7 -134 -19z m142 -231 c52 -19
71 -99 57 -237 -25 -238 -108 -404 -257 -513 -68 -51 -167 -101 -177 -91 -22
22 81 419 150 581 62 145 108 214 168 251 35 22 28 21 59 9z m5081 -1227 c-73
-429 -123 -611 -191 -701 -54 -70 -135 -93 -187 -52 -30 24 -57 97 -57 157 0
106 37 266 83 358 77 156 216 273 325 275 33 0 33 0 27 -37z m-4350 -1536
c-110 -393 -230 -583 -335 -527 -53 29 -50 151 9 274 50 107 106 178 242 311
85 83 114 106 117 92 2 -9 -13 -77 -33 -150z"/>
</g>
</svg>
